<svg width="20" height="20" viewBox="0 0 20 20" fill="none" xmlns="http://www.w3.org/2000/svg">
  <path d="M17 5H15.4286V3H17V5ZM13.8571 5H12.2857V3H13.8571V5ZM10.7143 5H9.14286V3H10.7143V5ZM7.57143 5H6V3H7.57143V5Z"
    fill="currentColor" />
  <path d="M17 17H15V15H17V17ZM17 13H15V11H17V13ZM17 9H15V7H17V9ZM17 5H15V3H17V5Z" fill="currentColor" />
  <path
    d="M17 17H15.4286V15H17V17ZM13.8571 17H12.2857V15H13.8571V17ZM10.7143 17H9.14286V15H10.7143V17ZM7.57143 17H6V15H7.57143V17Z"
    fill="currentColor" />
  <path fill-rule="evenodd" clip-rule="evenodd"
    d="M6 2H2V6H3V15V17H5H14V18H18V14H17V5V3H15L6 3V2ZM15 5H6V6H5V15H14V14H15V5Z" fill="currentColor" />
</svg>